<svg width="30" height="30" viewBox="0 0 30 30" fill="none" xmlns="http://www.w3.org/2000/svg">
<path d="M2.93243 14.0626C2.65573 13.2333 2.5 12.4002 2.5 11.5756C2.5 4.18687 9.3752 0.828296 15 6.87346C20.6248 0.828296 27.5 4.18664 27.5 11.5755C27.5 12.4002 27.3443 13.2333 27.0676 14.0626H23.2951L23.1551 14.0625C22.473 14.0614 21.8671 14.0604 21.3159 14.3059C20.7645 14.5514 20.3599 15.0025 19.9041 15.5105L19.8106 15.6148L18.524 17.0443C18.4283 17.1506 18.35 17.2375 18.2809 17.3116C18.2154 17.2349 18.141 17.1449 18.0501 17.0346L13.6111 11.654C13.4366 11.4424 13.25 11.216 13.0675 11.048C12.8549 10.8524 12.5406 10.6323 12.1012 10.6059C11.6618 10.5795 11.3234 10.7604 11.0889 10.9292C10.8876 11.0741 10.6752 11.2765 10.4767 11.4657L8.56465 13.2868C7.97494 13.8484 7.85189 13.9441 7.72318 13.9955C7.59446 14.047 7.43938 14.0626 6.625 14.0626H2.93243Z" fill="#1C274C" stroke="black" stroke-width="0.00064"/>
<path d="M3.75537 15.9376C5.4816 19.14 8.66272 22.1427 11.202 24.2134C12.867 25.5711 13.6995 26.25 14.9999 26.25C16.3002 26.25 17.1327 25.5711 18.7977 24.2134C21.337 22.1427 24.5181 19.14 26.2444 15.9376H23.295C22.3897 15.9376 22.2181 15.9565 22.0785 16.0187C21.939 16.0809 21.81 16.1959 21.2041 16.869L19.8856 18.334C19.6882 18.5535 19.4797 18.7854 19.2792 18.9535C19.0479 19.1475 18.7032 19.3651 18.2369 19.3551C17.7706 19.345 17.4359 19.113 17.2129 18.9092C17.0199 18.7327 16.8216 18.4922 16.6341 18.2647L12.1934 12.8821C12.109 12.7799 12.0403 12.6966 11.9797 12.6256C11.9111 12.6889 11.8329 12.7632 11.7369 12.8547L9.76668 14.7312C9.32173 15.1562 8.92692 15.5334 8.4194 15.7365C7.91187 15.9395 7.36588 15.9386 6.75053 15.9377L3.75537 15.9376Z" fill="#1C274C" stroke="black" stroke-width="0.00064"/>
</svg>
