<svg width="16" height="16" viewBox="0 0 16 16" fill="none" xmlns="http://www.w3.org/2000/svg">
<path d="M3.00016 15.2917C2.39258 15.291 1.81007 15.0494 1.38044 14.6197C0.950813 14.1901 0.709158 13.6076 0.708496 13V4.66668C0.709173 4.09512 0.9231 3.54438 1.30842 3.12223C1.69373 2.70007 2.22271 2.43689 2.79183 2.38418V1.33334C2.79183 1.16758 2.85768 1.00861 2.97489 0.891402C3.0921 0.774192 3.25107 0.708344 3.41683 0.708344C3.58259 0.708344 3.74156 0.774192 3.85877 0.891402C3.97598 1.00861 4.04183 1.16758 4.04183 1.33334V2.37501H11.9585V1.33334C11.9585 1.16758 12.0243 1.00861 12.1416 0.891402C12.2588 0.774192 12.4177 0.708344 12.5835 0.708344C12.7493 0.708344 12.9082 0.774192 13.0254 0.891402C13.1426 1.00861 13.2085 1.16758 13.2085 1.33334V2.38418C13.7776 2.43689 14.3066 2.70007 14.6919 3.12223C15.0772 3.54438 15.2912 4.09512 15.2918 4.66668V13C15.2914 13.6077 15.0498 14.1903 14.6201 14.62C14.1905 15.0497 13.6078 15.2912 13.0002 15.2917H3.00016ZM1.9585 13C1.95872 13.2762 2.06853 13.541 2.26384 13.7363C2.45914 13.9316 2.72396 14.0415 3.00016 14.0417H13.0002C13.2764 14.0415 13.5412 13.9316 13.7365 13.7363C13.9318 13.541 14.0416 13.2762 14.0418 13V7.37501H1.9585V13ZM14.0418 6.12501V4.66668C14.0416 4.39048 13.9318 4.12565 13.7365 3.93035C13.5412 3.73505 13.2764 3.62523 13.0002 3.62501H3.00016C2.72396 3.62523 2.45914 3.73505 2.26384 3.93035C2.06853 4.12565 1.95872 4.39048 1.9585 4.66668V6.12501H14.0418Z" fill="#707070"/>
</svg>
