<!DOCTYPE svg PUBLIC "-//W3C//DTD SVG 1.1//EN" "http://www.w3.org/Graphics/SVG/1.1/DTD/svg11.dtd">

<!-- Uploaded to: SVG Repo, www.svgrepo.com, Transformed by: SVG Repo Mixer Tools -->
<svg width="64px" height="64px" viewBox="0 0 48 48" xmlns="http://www.w3.org/2000/svg" fill="#000000" stroke="#000000" stroke-width="0.00048000000000000007">

<g id="SVGRepo_bgCarrier" stroke-width="0"/>

<g id="SVGRepo_tracerCarrier" stroke-linecap="round" stroke-linejoin="round"/>

<g id="SVGRepo_iconCarrier"> <title>comment-text</title> <g id="Layer_2" data-name="Layer 2"> <g id="invisible_box" data-name="invisible box"> <rect width="48" height="48" fill="none"/> </g> <g id="icons_Q2" data-name="icons Q2"> <path d="M40,8V32H13.6l-1.2,1.1L8,37.3V8H40m2-4H6A2,2,0,0,0,4,6V42a2,2,0,0,0,2,2,2,2,0,0,0,1.4-.6L15.2,36H42a2,2,0,0,0,2-2V6a2,2,0,0,0-2-2Z"/> <rect x="14" y="14" width="20" height="4" rx="2" ry="2"/> <rect x="14" y="22" width="12" height="4" rx="2" ry="2"/> </g> </g> </g>

</svg>