<svg width="15" height="15" viewBox="0 0 15 15" fill="none" xmlns="http://www.w3.org/2000/svg">
<path d="M7.5 0.78125C7.75888 0.78125 7.96875 0.991119 7.96875 1.25V1.40714C8.03825 1.40819 8.09756 1.41047 8.15288 1.41536C9.28425 1.51541 10.181 2.41221 10.2811 3.54355C10.2902 3.64695 10.2902 3.7641 10.2902 3.93616V4.70062C10.2902 7.11894 8.45013 9.10744 6.09376 9.34256V10.6251C6.09376 12.0921 7.283 13.2813 8.75 13.2813H9.3015C10.1752 13.2813 10.9256 12.7488 11.2439 11.9889C11.2688 11.9295 11.2861 11.8618 11.2969 11.7842C10.5443 11.5404 10 10.8338 10 10C10 8.96444 10.8395 8.125 11.875 8.125C12.9106 8.125 13.75 8.96444 13.75 10C13.75 10.9127 13.0979 11.673 12.2343 11.8406C12.217 12.0053 12.1804 12.1795 12.1086 12.3511C11.6494 13.4472 10.5661 14.2188 9.3015 14.2188H8.75C6.76525 14.2188 5.15626 12.6098 5.15626 10.6251V9.34344C2.70106 9.10762 0.781258 7.03906 0.781258 4.52206L0.781252 3.93619C0.781233 3.76412 0.78122 3.64696 0.790364 3.54355C0.890408 2.41221 1.78721 1.51541 2.91856 1.41536C3.01585 1.40676 3.12532 1.40626 3.28126 1.40624V1.25C3.28126 0.991119 3.49112 0.78125 3.75001 0.78125C4.00889 0.78125 4.21876 0.991119 4.21876 1.25V2.5C4.21876 2.75888 4.00889 2.96875 3.75001 2.96875C3.49112 2.96875 3.28126 2.75888 3.28126 2.5V2.34376C3.11663 2.34387 3.05246 2.34467 3.00113 2.34922C2.32233 2.40924 1.78425 2.94732 1.72422 3.62613C1.71921 3.68275 1.71876 3.75501 1.71876 3.96056V4.52206C1.71876 6.67944 3.46765 8.42831 5.62501 8.42831C7.68375 8.42831 9.35269 6.75937 9.35269 4.70062V3.96056C9.35269 3.75501 9.35225 3.68275 9.34719 3.62613C9.28719 2.94732 8.74913 2.40924 8.07031 2.34922C8.04388 2.34687 8.014 2.34553 7.96875 2.34476V2.5C7.96875 2.75888 7.75888 2.96875 7.5 2.96875C7.24113 2.96875 7.03125 2.75888 7.03125 2.5V1.25C7.03125 0.991119 7.24113 0.78125 7.5 0.78125Z" fill="#707070"/>
</svg>
