<svg width="20" height="20" viewBox="0 0 20 20" fill="none" xmlns="http://www.w3.org/2000/svg">
<path d="M14 5.69232H17.2615C17.3185 5.69391 17.3752 5.68386 17.4282 5.66277C17.4812 5.64169 17.5293 5.61001 17.5697 5.56969C17.61 5.52937 17.6417 5.48125 17.6627 5.42826C17.6838 5.37528 17.6939 5.31855 17.6923 5.26155C17.696 5.20433 17.6869 5.14701 17.6656 5.09377C17.6443 5.04053 17.6114 4.99273 17.5692 4.95386L13.5077 0.892319C13.4688 0.850166 13.421 0.817237 13.3678 0.795942C13.3145 0.774647 13.2572 0.765524 13.2 0.769242C13.143 0.76765 13.0862 0.777704 13.0333 0.798789C12.9803 0.819874 12.9322 0.851546 12.8918 0.891869C12.8515 0.932191 12.8198 0.980315 12.7988 1.0333C12.7777 1.08628 12.7676 1.14301 12.7692 1.20001V4.46155C12.7702 4.78766 12.9002 5.10012 13.1308 5.33071C13.3614 5.56131 13.6739 5.6913 14 5.69232Z" fill="#677382"/>
<path d="M17.0768 7.53846H12.7692C12.2798 7.53744 11.8109 7.34261 11.4648 6.99661C11.1188 6.65061 10.924 6.18162 10.923 5.6923V1.38461C10.923 1.2214 10.8582 1.06488 10.7428 0.949468C10.6274 0.834061 10.4708 0.769226 10.3076 0.769226H4.15377C3.66445 0.770242 3.19547 0.965074 2.84947 1.31107C2.50346 1.65708 2.30863 2.12606 2.30762 2.61538V17.3846C2.30863 17.8739 2.50346 18.3429 2.84947 18.6889C3.19547 19.0349 3.66445 19.2297 4.15377 19.2308H15.8461C16.3354 19.2297 16.8044 19.0349 17.1504 18.6889C17.4964 18.3429 17.6912 17.8739 17.6922 17.3846V8.15384C17.6922 8.07303 17.6763 7.99301 17.6454 7.91834C17.6145 7.84368 17.5691 7.77584 17.512 7.7187C17.4548 7.66155 17.387 7.61623 17.3123 7.5853C17.2377 7.55437 17.1577 7.53846 17.0768 7.53846ZM4.76916 6.92307C4.77603 6.76385 4.84365 6.61332 4.95812 6.50244C5.07258 6.39155 5.22518 6.32874 5.38454 6.32692H7.90377C7.98256 6.32641 8.06069 6.34143 8.13368 6.37112C8.20667 6.4008 8.27309 6.44457 8.32916 6.49993C8.38524 6.55529 8.42986 6.62115 8.46048 6.69375C8.4911 6.76636 8.50711 6.84428 8.50762 6.92307V7.53461C8.50274 7.6949 8.43663 7.84723 8.32288 7.96026C8.20913 8.07329 8.05639 8.13844 7.89608 8.1423H5.38454C5.30431 8.14387 5.22458 8.12923 5.15014 8.09924C5.07571 8.06926 5.00809 8.02455 4.95134 7.96781C4.8946 7.91106 4.84989 7.84345 4.81991 7.76901C4.78993 7.69457 4.77528 7.61485 4.77685 7.53461L4.76916 6.92307ZM13.9999 14.9115C13.9999 15.0747 13.9351 15.2313 13.8197 15.3467C13.7043 15.4621 13.5477 15.5269 13.3845 15.5269H5.38454C5.22133 15.5269 5.0648 15.4621 4.9494 15.3467C4.83399 15.2313 4.76916 15.0747 4.76916 14.9115V14.3077C4.76916 14.1445 4.83399 13.988 4.9494 13.8725C5.0648 13.7571 5.22133 13.6923 5.38454 13.6923H13.3845C13.5477 13.6923 13.7043 13.7571 13.8197 13.8725C13.9351 13.988 13.9999 14.1445 13.9999 14.3077V14.9115ZM15.2307 11.2192C15.2322 11.301 15.2174 11.3823 15.1872 11.4583C15.157 11.5343 15.1119 11.6035 15.0546 11.6618C14.9973 11.7202 14.9289 11.7666 14.8535 11.7982C14.7781 11.8299 14.6971 11.8462 14.6153 11.8461H5.38454C5.22133 11.8461 5.0648 11.7813 4.9494 11.6659C4.83399 11.5505 4.76916 11.394 4.76916 11.2308V10.6154C4.76916 10.4522 4.83399 10.2956 4.9494 10.1802C5.0648 10.0648 5.22133 10 5.38454 10H14.6153C14.7785 10 14.935 10.0648 15.0505 10.1802C15.1659 10.2956 15.2307 10.4522 15.2307 10.6154V11.2192Z" fill="#677382"/>
</svg>
