<svg width="100" height="100" viewBox="0 0 100 100" fill="none" xmlns="http://www.w3.org/2000/svg">
<g clip-path="url(#clip0_56_1683)">
<path d="M50 100C77.6142 100 100 77.6142 100 50C100 22.3858 77.6142 0 50 0C22.3858 0 0 22.3858 0 50C0 77.6142 22.3858 100 50 100Z" fill="#E9573E"/>
<path fill-rule="evenodd" clip-rule="evenodd" d="M37.6297 62.5892L63.3692 62.8303V68.6831L74.6994 74.086L49.3158 97.9032L27.5342 73.0811L37.6297 68.7834V62.5892Z" fill="#F9DCA4"/>
<path fill-rule="evenodd" clip-rule="evenodd" d="M86.5341 84.1313C81.8621 89.1453 76.2065 93.1422 69.9206 95.8726C63.6347 98.6029 56.8533 100.008 50 100C47.9245 100 45.851 99.8721 43.7913 99.6168C37.4744 98.7116 31.3625 96.7165 25.7281 93.7204C20.973 91.0737 16.6797 87.6718 13.0161 83.6475L15.0922 78.6313L33.4223 70.4533C34.8382 77.7931 40.2751 89.1184 49.8884 95.5375C54.3846 92.822 58.2867 89.2272 61.361 84.9682C64.4352 80.7092 66.6185 75.8736 67.78 70.751L84.0633 78.6847L86.5341 84.1313Z" fill="#677079"/>
<path opacity="0.11" fill-rule="evenodd" clip-rule="evenodd" d="M64.387 69.1669C65.565 69.7284 67.5796 70.6685 67.7754 70.7834C64.4906 81.0876 42.3384 84.8611 35.8076 69.5601L64.387 69.1669Z" fill="black"/>
<path fill-rule="evenodd" clip-rule="evenodd" d="M50.3706 13.6441C84.806 13.6441 71.3853 70.709 50.3706 70.709C30.5227 70.709 15.9353 13.6441 50.3706 13.6441Z" fill="#FFE8BE"/>
<path fill-rule="evenodd" clip-rule="evenodd" d="M29.7167 38.9079C24.7491 41.0762 28.9724 51.3464 32.0986 51.2995C30.802 47.2816 30.0021 43.1202 29.7167 38.9079Z" fill="#F9DCA4"/>
<path fill-rule="evenodd" clip-rule="evenodd" d="M71.4242 38.9079C76.3919 41.0746 72.1686 51.3464 69.0439 51.2995C70.3397 47.2815 71.139 43.12 71.4242 38.9079Z" fill="#F9DCA4"/>
<path fill-rule="evenodd" clip-rule="evenodd" d="M37.8575 24.979C36.8996 29.458 37.2362 33.9111 32.9902 34.7331C31.9805 34.9273 31.3122 36.2946 31.0937 37.5001C30.6013 40.1298 30.3951 42.805 30.4789 45.4791C30.6471 46.3998 29.8381 43.7121 29.8381 43.7121L29.7005 38.5762C29.7005 38.5762 29.6407 37.5923 29.6633 36.0923C29.7119 33.0503 30.0581 28.1182 31.5986 26.6101C33.898 24.3609 37.8575 24.979 37.8575 24.979Z" fill="#AD835F"/>
<path fill-rule="evenodd" clip-rule="evenodd" d="M63.2607 24.979C64.2187 29.458 63.8837 33.9111 68.1281 34.7331C69.1378 34.9273 69.8077 36.2946 70.0245 37.5001C70.4965 40.1405 70.6659 42.8262 70.5294 45.505C70.3595 46.4273 71.1685 43.738 71.1685 43.738L71.4371 38.5956C71.4371 38.5956 71.4776 37.5923 71.4533 36.0923C71.408 33.0503 71.0617 28.1182 69.5197 26.6101C67.2203 24.3609 63.2607 24.979 63.2607 24.979Z" fill="#AD835F"/>
<path fill-rule="evenodd" clip-rule="evenodd" d="M41.042 75.2057C38.5986 72.8481 36.6439 71.0196 34.8704 69.1895C32.5969 66.8416 31.8267 64.4614 31.385 60.2931C30.3824 53.0902 29.8188 45.833 29.6973 38.5616C29.6973 38.5616 31.3704 48.8092 34.4902 53.861C36.0921 56.4549 42.6455 50.3578 45.2588 49.4306C46.1473 49.0195 47.1488 48.9207 48.1005 49.1504C49.0522 49.3801 49.8984 49.9248 50.5015 50.696C51.0937 49.9235 51.9323 49.3768 52.878 49.1466C53.8237 48.9165 54.8197 49.0167 55.7006 49.4306C58.3155 50.3578 64.7783 55.5665 66.4708 53.861C70.5404 49.7574 71.4175 38.5762 71.4175 38.5762C71.2474 45.9286 70.6374 53.2643 69.5906 60.5439C69.0032 64.9873 68.7055 66.709 67.1861 68.4468C64.9559 70.9517 62.4783 73.2248 59.7912 75.2316C58.4514 76.2931 56.1229 77.2899 50.1909 77.2543C44.6795 77.2219 42.419 76.5342 41.042 75.2057Z" fill="#60350A"/>
<path fill-rule="evenodd" clip-rule="evenodd" d="M64.0845 25.8852C64.9426 25.7191 65.8311 25.8204 66.6298 26.1755C67.4285 26.5306 68.0989 27.1223 68.5505 27.8706C71.0683 32.0988 71.2771 32.6441 71.2771 32.6441C71.2771 32.6441 70.9793 25.081 70.7997 24.1813C71.0162 23.982 71.302 23.8751 71.5961 23.8836C71.8903 23.8921 72.1695 24.0152 72.3741 24.2266C72.5521 24.5858 71.6557 16.6214 66.9777 15.0939C65.2673 10.2363 59.2851 6.63756 59.2851 6.63756L59.0149 9.3366C58.4125 7.50428 57.2828 5.89047 55.7673 4.69736C54.2518 3.50426 52.4179 2.78491 50.4954 2.62946C51.5747 3.84467 51.3158 4.73302 51.3158 4.73302C49.6322 4.02769 47.8205 3.67946 45.9954 3.71037C46.222 5.14888 44.5569 6.67963 44.5569 6.67963C44.5569 6.67963 43.5229 5.10357 39.4291 4.56474C38.709 7.17316 37.3578 7.623 36.0553 8.83821C34.9609 9.95898 33.9542 11.1621 33.0439 12.4369C33.0439 12.4369 33.1782 9.9175 34.0779 9.19744C34.4161 8.97414 26.4468 12.1149 30.4339 23.8188C29.7196 23.8015 29.0204 24.0256 28.4492 24.4549C27.8781 24.8842 27.4685 25.4936 27.2866 26.1845C29.5358 26.814 28.6054 30.2137 29.8643 32.4176C30.7494 29.8609 31.3352 24.8803 36.8676 26.1845C40.8287 27.1182 44.6313 29.1198 49.1977 29.28C55.6492 29.5049 58.099 26.1182 64.0845 25.8852Z" fill="#60350A"/>
<path fill-rule="evenodd" clip-rule="evenodd" d="M52.4514 62.45C53.0819 62.5557 53.7276 62.5255 54.3455 62.3614C54.9633 62.1973 55.539 61.9031 56.0339 61.4986C57.199 60.1555 58.1488 58.2477 56.3818 57.2219C54.6569 55.9969 52.675 55.1822 50.5873 54.84C48.4871 55.1765 46.492 55.9902 44.7556 57.2186C42.5873 58.4727 43.9141 60.1555 45.0808 61.4986C45.5758 61.9031 46.1514 62.1973 46.7693 62.3614C47.3871 62.5255 48.0329 62.5557 48.6634 62.45C47.3511 57.8804 53.7653 57.8804 52.4514 62.45Z" fill="#FFE8BE"/>
</g>
<defs>
<clipPath id="clip0_56_1683">
<rect width="100" height="100" fill="white"/>
</clipPath>
</defs>
</svg>
