<svg width="25" height="25" viewBox="0 0 25 25" fill="none" xmlns="http://www.w3.org/2000/svg">
<path d="M13.2152 13.5417C15.3919 13.5417 17.1566 15.4072 17.1566 17.7083V19.2708C17.1566 20.1337 16.4949 20.8333 15.6786 20.8333H3.85426C3.03796 20.8333 2.37622 20.1337 2.37622 19.2708V17.7083C2.37622 15.4072 4.14086 13.5417 6.31766 13.5417H13.2152ZM19.1273 13.5419C20.76 13.5419 22.0834 14.941 22.0834 16.6669V18.2294C22.0834 19.0924 21.4217 19.7919 20.6054 19.7919H19.1273V17.7083C19.1273 16.0047 18.3536 14.4922 17.1574 13.5419H19.1273ZM9.76642 3.125C12.2153 3.125 14.2005 5.22367 14.2005 7.8125C14.2005 10.4013 12.2153 12.5 9.76642 12.5C7.31753 12.5 5.3323 10.4013 5.3323 7.8125C5.3323 5.22367 7.31753 3.125 9.76642 3.125ZM18.142 6.25C19.7746 6.25 21.0981 7.64911 21.0981 9.375C21.0981 11.1009 19.7746 12.5 18.142 12.5C16.5093 12.5 15.1859 11.1009 15.1859 9.375C15.1859 7.64911 16.5093 6.25 18.142 6.25Z" fill="#09244B"/>
</svg>
