<svg width="20" height="20" viewBox="0 0 20 20" fill="none" xmlns="http://www.w3.org/2000/svg">
<g clip-path="url(#clip0_56_1672)">
<path d="M10.1 10.65C10.0416 10.6417 9.96663 10.6417 9.89996 10.65C8.43329 10.6 7.2666 9.4 7.2666 7.92498C7.2666 6.41665 8.48329 5.19165 9.99996 5.19165C11.5083 5.19165 12.7333 6.41665 12.7333 7.92498C12.725 9.4 11.5666 10.6 10.1 10.65Z" stroke="#677382" stroke-width="1.6" stroke-linecap="round" stroke-linejoin="round"/>
<path d="M15.6166 16.1501C14.1333 17.5084 12.1666 18.3334 9.99996 18.3334C7.8333 18.3334 5.86663 17.5084 4.3833 16.1501C4.46663 15.3667 4.96663 14.6001 5.8583 14.0001C8.14163 12.4834 11.875 12.4834 14.1416 14.0001C15.0333 14.6001 15.5333 15.3667 15.6166 16.1501Z" stroke="#677382" stroke-width="1.6" stroke-linecap="round" stroke-linejoin="round"/>
<path d="M9.99984 18.3333C14.6022 18.3333 18.3332 14.6023 18.3332 9.99999C18.3332 5.39761 14.6022 1.66666 9.99984 1.66666C5.39746 1.66666 1.6665 5.39761 1.6665 9.99999C1.6665 14.6023 5.39746 18.3333 9.99984 18.3333Z" stroke="#677382" stroke-width="1.6" stroke-linecap="round" stroke-linejoin="round"/>
</g>
<defs>
<clipPath id="clip0_56_1672">
<rect width="20" height="20" fill="white"/>
</clipPath>
</defs>
</svg>
